<?xml version="1.0" encoding="UTF-8" standalone="no"?>
<!-- Created with Inkscape (http://www.inkscape.org/) -->

<svg
   version="1.1"
   id="svg8613"
   width="880"
   height="880"
   viewBox="0 0 880 880"
   sodipodi:docname="sunrise-landscape-publicdomainvectors.org.svg"
   inkscape:version="1.2 (dc2aedaf03, 2022-05-15)"
   xmlns:inkscape="http://www.inkscape.org/namespaces/inkscape"
   xmlns:sodipodi="http://sodipodi.sourceforge.net/DTD/sodipodi-0.dtd"
   xmlns="http://www.w3.org/2000/svg"
   xmlns:svg="http://www.w3.org/2000/svg">
  <defs
     id="defs8617">
    <clipPath
       clipPathUnits="userSpaceOnUse"
       id="clipPath8631">
      <path
         d="M 0,660 H 660 V 0 H 0 Z"
         id="path8629" />
    </clipPath>
  </defs>
  <sodipodi:namedview
     id="namedview8615"
     pagecolor="#ffffff"
     bordercolor="#000000"
     borderopacity="0.25"
     inkscape:showpageshadow="2"
     inkscape:pageopacity="0.0"
     inkscape:pagecheckerboard="0"
     inkscape:deskcolor="#d1d1d1"
     showgrid="false"
     inkscape:zoom="0.95113636"
     inkscape:cx="441.05137"
     inkscape:cy="440.52569"
     inkscape:window-width="1920"
     inkscape:window-height="1017"
     inkscape:window-x="-8"
     inkscape:window-y="-8"
     inkscape:window-maximized="1"
     inkscape:current-layer="g8621">
    <inkscape:page
       x="0"
       y="0"
       id="page8619"
       width="880"
       height="880" />
  </sodipodi:namedview>
  <g
     id="g8621"
     inkscape:groupmode="layer"
     inkscape:label="Page 1"
     transform="matrix(1.3333333,0,0,-1.3333333,0,880)">
    <path
       d="M 0,0.5 H 658.379 V 658.999 H 0 Z"
       style="fill:#e8f8fc;fill-opacity:1;fill-rule:nonzero;stroke:none"
       id="path8623" />
    <g
       id="g8625">
      <g
         id="g8627"
         clip-path="url(#clipPath8631)">
        <g
           id="g8633"
           transform="translate(329.1309,17.9746)">
          <path
             d="m 0,0 c 171.719,0 311.772,140.056 311.772,311.774 0,171.72 -140.053,311.775 -311.772,311.775 -171.72,0 -311.774,-140.055 -311.774,-311.775 C -311.774,140.056 -171.72,0 0,0"
             style="fill:#eee9bd;fill-opacity:1;fill-rule:evenodd;stroke:none"
             id="path8635" />
        </g>
        <g
           id="g8637"
           transform="translate(329.1294,586.686)">
          <path
             d="m 0,0 c 141.901,0 256.935,-115.034 256.935,-256.936 0,-141.901 -115.034,-256.935 -256.935,-256.935 -141.903,0 -256.936,115.034 -256.936,256.935 C -256.936,-115.034 -141.903,0 0,0"
             style="fill:#f2de8e;fill-opacity:1;fill-rule:evenodd;stroke:none"
             id="path8639" />
        </g>
        <g
           id="g8641"
           transform="translate(329.1294,531.8481)">
          <path
             d="m 0,0 c 111.616,0 202.098,-90.482 202.098,-202.098 0,-111.615 -90.482,-202.099 -202.098,-202.099 -111.617,0 -202.098,90.484 -202.098,202.099 C -202.098,-90.482 -111.617,0 0,0"
             style="fill:#f7d25f;fill-opacity:1;fill-rule:evenodd;stroke:none"
             id="path8643" />
        </g>
        <g
           id="g8645"
           transform="translate(329.1294,477.0117)">
          <path
             d="m 0,0 c 81.33,0 147.26,-65.932 147.26,-147.262 0,-81.331 -65.93,-147.261 -147.26,-147.261 -81.331,0 -147.261,65.93 -147.261,147.261 C -147.261,-65.932 -81.331,0 0,0"
             style="fill:#fbc72f;fill-opacity:1;fill-rule:evenodd;stroke:none"
             id="path8647" />
        </g>
        <g
           id="g8649"
           transform="translate(329.1294,237.3252)">
          <path
             d="m 0,0 c 50.906,0 92.425,41.518 92.425,92.425 0,50.906 -41.519,92.425 -92.425,92.425 -50.905,0 -92.425,-41.519 -92.425,-92.425 C -92.425,41.518 -50.905,0 0,0"
             style="fill:#ffbb00;fill-opacity:1;fill-rule:evenodd;stroke:none"
             id="path8651" />
        </g>
        <path
           d="m -0.121,0.5 h 658.5 v 329.25 h -658.5 z"
           style="fill:#94ab13;fill-opacity:1;fill-rule:evenodd;stroke:none"
           id="path8653" />
        <g
           id="g8655"
           transform="translate(550.4404,243.3633)">
          <path
             d="m 0,0 c 17.996,14.443 -1.967,4.135 3.427,17.267 3.286,8.005 -10.431,0.447 -17.112,12.846 -0.035,0.062 -13.153,0.331 -17.359,-2.502 -7.011,-4.722 -14.863,9.159 -15.639,9.159 -2.922,0 -15.626,-0.094 -15.626,-5.658 -0.072,-0.011 -14.74,3.171 -16.815,5.688 -7.973,9.663 -10.862,-0.767 -15.756,-0.716 -5.367,0.054 -22.944,10.799 -23.299,-2.63 -0.076,-2.905 -4.129,0.427 -4.129,-8.885 0,-3.829 -8.357,-1.37 -7.712,-13.14 0.201,-3.681 -12.417,-9.429 1.972,-11.691 28.635,-4.5 58.692,-0.197 86.563,-2.023 5.272,-0.346 34.428,-4.137 38.686,0.029 C -1.652,-1.134 -0.735,-0.591 0,0"
             style="fill:#748705;fill-opacity:1;fill-rule:evenodd;stroke:none"
             id="path8657" />
        </g>
        <g
           id="g8659"
           transform="translate(244.3569,248.9795)">
          <path
             d="m 0,0 c -8.142,-2.428 -15.273,-2.523 -23.258,0.862 -3.8,1.612 -3.035,5.968 -1.279,9.041 7.237,12.933 7.299,20.988 4.079,36.018 -0.657,3.061 -1.468,6.012 -2.306,9.009 -1.888,8.066 -1.311,15.239 -3.036,23.907 -1.929,9.681 -3.551,15.228 0.153,24.895 2.989,7.809 3.61,-14.632 3.679,-15.225 0.848,-7.442 3.095,-14.035 3.973,-21.402 0.445,-4.632 1.69,-17.699 5.411,-5.494 5.042,18.07 -3.162,38.655 4.277,55.525 2.732,6.19 0.67,-10.437 0.589,-11.165 -1.567,-14.415 0.654,-16.619 1.489,-29.388 0.145,-2.178 0.122,-3.932 0.042,-6.106 -0.875,-15.22 0.938,-16.96 6.008,-1.927 2.127,6.305 0.551,15.977 3.167,19.21 1.647,2.035 4.569,2.45 4.471,-1.959 C 7.389,82.841 6.661,79.667 6.563,76.081 6.307,66.62 5.798,66.539 2.445,58.13 L 1.682,56.209 C -0.726,50.082 -5.064,41.559 -5.35,35.208 -5.607,29.578 -4.002,20.9 -3.239,15.07 -2.552,9.325 -1.537,5.481 0,0"
             style="fill:#748705;fill-opacity:1;fill-rule:evenodd;stroke:none"
             id="path8661" />
        </g>
        <g
           id="g8663"
           transform="translate(226.3193,327.5381)">
          <path
             d="m 0,0 c -4.673,3.653 -6.67,2.041 -10.552,-1.456 -2.841,-2.56 -4.41,-1.796 -5.901,1.611 l -0.32,0.732 c -1.65,4.666 0.959,6.61 -3.101,11.451 -2.901,3.456 -2.792,3.431 -0.26,6.857 4.516,6.541 -4.482,8.165 -4.434,10.891 0.022,1.221 4.2,3.589 5.364,4.479 2.677,2.045 3.134,1.857 3.254,5.523 0.116,3.493 1.579,3.359 4.545,4.591 0.541,0.225 0.707,0.306 1.079,0.75 1.089,1.825 -4.389,2.507 -0.61,5.261 2.019,1.473 4.994,1.518 7.327,0.918 5.018,-1.482 5.546,-4.522 11.954,-2.826 0.911,0.241 1.742,0.543 2.622,0.873 1.383,0.519 7.892,1.908 8.205,2.168 1.197,0.989 -1.226,2.108 4.795,1.309 2.105,-0.279 5.468,-0.301 5.229,-3.2 -0.225,-2.722 -0.634,-2.589 1.952,-4.483 1.433,-1.05 2.622,-2.033 3.919,-3.259 3.197,-3.104 8.103,-4.237 10.438,-7.043 2.71,-3.853 -0.408,-4.244 0.083,-8.506 0.598,-5.204 3.437,-10.092 -4.19,-11.43 C 38.504,14.703 36.232,14.127 39.011,10.958 39.932,9.91 41.144,8.853 42.17,7.885 44.36,5.81 44.614,4.185 42.063,2.195 41.565,1.807 41.191,1.622 40.634,1.339 38.082,0.179 39.46,-0.756 36.675,-2.269 34.838,-3.266 32.228,-4.332 30.143,-4.286 26.357,-4.203 21.826,-2.148 18.462,-0.461 8.123,4.721 7.555,-2.517 3.884,-2.473 2.68,-2.459 0.993,-0.787 0,0"
             style="fill:#748705;fill-opacity:1;fill-rule:evenodd;stroke:none"
             id="path8665" />
        </g>
        <g
           id="g8667"
           transform="translate(466.208,253.3994)">
          <path
             d="m 0,0 c 5.157,0.88 7.677,3.231 12.532,4.915 7.644,2.652 7.945,8.717 7.791,15.851 -0.042,1.933 -0.182,3.83 -0.358,5.752 -1.057,11.163 -6.371,13.662 -15.51,18.981 -2.321,1.352 -4.646,2.694 -6.96,4.059 -1.796,1.063 -31.196,18.657 -16.207,18.263 0.213,-0.005 9.66,-8.03 10.976,-8.813 12.609,-7.508 19.352,-16.32 13.311,9.954 -0.163,0.706 -5.66,21.899 0.217,11.704 2.991,-5.186 6.646,-37.589 18.151,-33.974 5.618,2.35 3.711,21.842 5.284,27.515 0.834,3.008 2.752,6.177 3.844,9.454 0.939,2.82 1.538,4.681 0.113,7.367 -1.294,2.437 3.695,1.19 5.031,-0.802 2.941,-4.385 -2.621,-14.149 -3.205,-18.818 -0.31,-2.472 -0.46,-6.001 -0.625,-8.581 -0.168,-2.612 -0.31,-5.324 0.537,-7.84 2.441,-6.441 13.393,-1.873 17.802,-0.061 5.058,2.441 9.01,6.425 13.004,10.291 3.583,3.47 4.91,4.572 7.47,9.049 1.531,2.675 3.79,3.494 2.725,-0.4 -2.456,-8.98 -2.242,-10.103 -9.258,-16.408 -1.938,-1.742 -3.721,-3.585 -5.504,-5.481 -1.584,-1.691 -3.25,-2.931 -4.843,-4.685 -3.39,-3.798 -6.282,-4.097 -10.064,-7.31 C 42.424,36.73 40.6,33.188 40.334,28.161 40.538,19.754 43.995,13.933 49.607,7.865 53.69,3.448 56.143,3.505 61.686,2.232 63.586,1.79 65.111,1.419 65.75,-0.549 58.445,-5.315 49.753,-7.485 41.231,-8.804 35.04,-9.761 32.157,-12.152 25.096,-10.536 20.161,-9.408 15.557,-7.65 10.717,-6.273 5.846,-4.907 3.519,-4.314 -0.181,-0.599 -0.383,-0.382 -0.155,-0.028 0,0"
             style="fill:#748705;fill-opacity:1;fill-rule:evenodd;stroke:none"
             id="path8669" />
        </g>
        <g
           id="g8671"
           transform="translate(478.4043,314.1143)">
          <path
             d="m 0,0 c -2.696,-6.709 -8.126,-1.094 -13.312,-1.304 l -0.586,-0.023 c -6.353,-0.495 -4.292,-8.303 -9.051,-10.198 -2.52,-1.003 -5.099,-1.314 -7.776,-0.921 -2.441,0.423 -1.275,1.84 -0.612,3.588 1.915,5.045 2.315,10.086 -3.804,11.655 -2.376,0.608 -6.341,0.848 -1.893,3.615 3.324,2.067 6.982,3.403 3.403,7.653 -2.428,2.688 -1.279,1.704 -0.16,4.813 0.673,1.869 1.222,2.997 1.429,4.99 0.301,4.06 -10e-4,4.417 4.373,5.6 3.921,1.06 5.91,1.998 6.598,6.345 0.467,3.596 0.776,5.227 5.025,5.374 1.288,0.044 2.558,-0.059 3.839,-0.188 4.508,-0.626 6.043,-2.427 10.024,-3.931 2.987,-1.067 4.683,-1.318 7.642,-0.02 4.715,2.068 8.403,1.074 13.304,1.06 3.562,-0.009 6.273,-1.063 9.741,-1.693 5.805,-1.026 8.749,-7.901 15.758,-2.795 3.793,2.764 4.369,3.119 8.943,1.497 1.27,-0.45 2.275,-0.938 3.443,-1.601 3.83,-2.262 2.113,-3.883 4.728,-4.969 2.801,-1.163 2.556,-1.611 3.512,-4.375 1.665,-4.811 -2.845,-6.94 5.09,-10.294 2.043,-0.823 6.33,-1.89 5.14,-5.001 C 74.521,8.153 73.934,7.582 73.365,7.083 71.544,5.567 71.389,5.55 70.013,3.595 68.771,1.838 67.466,3.262 64.727,1.685 63.655,1.068 62.72,0.379 61.775,-0.409 58.58,-3.2 58.447,-2.007 55.993,0.992 54.481,2.841 53.19,3.706 50.752,3.847 47.82,3.823 46.657,3.19 43.736,4.165 41.771,4.819 39.169,3.211 37.566,2.123 34.765,0.222 34.084,-3.561 30.796,-2.856 25.98,-0.929 29.112,4.3 21.412,1.001 18.077,-0.427 15.108,-1.624 12.806,1.973 11.88,3.416 10.395,6.572 8.579,6.443 5.226,6.208 1.672,3.499 0.25,0.522 Z"
             style="fill:#748705;fill-opacity:1;fill-rule:evenodd;stroke:none"
             id="path8673" />
        </g>
        <path
           d="m -0.121,0.5 h 658.5 v 254.407 h -658.5 z"
           style="fill:#82970a;fill-opacity:1;fill-rule:evenodd;stroke:none"
           id="path8675" />
        <g
           id="g8677"
           transform="translate(64.3984,137.9658)">
          <path
             d="m 0,0 c 9.242,1.576 13.755,5.789 22.456,8.809 13.696,4.752 14.238,15.619 13.96,28.401 -0.075,3.464 -0.325,6.86 -0.642,10.307 C 33.878,67.52 24.358,71.998 7.98,81.528 c -4.16,2.421 -8.322,4.828 -12.468,7.275 -3.221,1.905 -55.901,33.43 -29.042,32.726 0.38,-0.01 17.309,-14.391 19.667,-15.795 C 8.73,92.283 20.814,76.491 9.989,123.57 c -0.291,1.267 -10.141,39.243 0.39,20.974 5.357,-9.294 11.909,-67.356 32.526,-60.876 10.065,4.209 6.648,39.137 9.468,49.303 1.494,5.39 4.931,11.067 6.887,16.94 1.682,5.052 2.757,8.388 0.201,13.202 -2.316,4.365 6.622,2.132 9.014,-1.438 5.27,-7.858 -4.697,-25.354 -5.743,-33.719 -0.555,-4.433 -0.824,-10.755 -1.119,-15.378 -0.3,-4.681 -0.556,-9.539 0.961,-14.048 4.376,-11.543 24.002,-3.356 31.899,-0.108 9.068,4.372 16.148,11.513 23.304,18.439 6.422,6.216 8.797,8.191 13.387,16.214 2.742,4.795 6.787,6.261 4.88,-0.715 -4.401,-16.092 -4.018,-18.105 -16.588,-29.402 -3.474,-3.122 -6.667,-6.423 -9.864,-9.822 -2.837,-3.03 -5.823,-5.251 -8.675,-8.392 C 94.84,77.938 89.66,77.401 82.882,71.644 76.02,65.815 72.748,59.468 72.27,50.462 72.641,35.397 78.836,24.966 88.89,14.093 96.207,6.177 100.604,6.281 110.535,4.001 c 3.404,-0.793 6.137,-1.458 7.283,-4.983 -13.094,-8.543 -28.667,-12.431 -43.937,-14.794 -11.093,-1.716 -16.26,-5.998 -28.912,-3.106 -8.842,2.023 -17.093,5.173 -25.767,7.642 C 10.475,-8.794 6.305,-7.732 -0.325,-1.071 -0.684,-0.682 -0.279,-0.051 0,0"
             style="fill:#576603;fill-opacity:1;fill-rule:evenodd;stroke:none"
             id="path8679" />
        </g>
        <g
           id="g8681"
           transform="translate(86.2529,246.7607)">
          <path
             d="m 0,0 c -4.833,-12.022 -14.563,-1.961 -23.854,-2.338 l -1.048,-0.041 c -11.386,-0.888 -7.695,-14.879 -16.222,-18.274 -4.513,-1.796 -9.137,-2.354 -13.932,-1.65 -4.374,0.758 -2.285,3.298 -1.095,6.429 3.431,9.039 4.146,18.073 -6.819,20.884 -4.255,1.091 -11.364,1.519 -3.391,6.479 5.953,3.704 12.511,6.097 6.099,13.712 -4.352,4.818 -2.293,3.055 -0.288,8.625 1.206,3.35 2.19,5.371 2.56,8.942 0.54,7.275 -0.003,7.915 7.835,10.034 7.027,1.899 10.589,3.582 11.824,11.371 0.836,6.442 1.392,9.365 9.004,9.628 2.31,0.08 4.586,-0.106 6.881,-0.337 8.078,-1.121 10.827,-4.35 17.96,-7.043 5.355,-1.913 8.39,-2.361 13.693,-0.035 8.451,3.705 15.058,1.924 23.839,1.899 6.384,-0.017 11.242,-1.904 17.455,-3.034 10.403,-1.84 15.678,-14.159 28.238,-5.008 6.796,4.951 7.827,5.588 16.025,2.681 2.276,-0.808 4.077,-1.681 6.17,-2.869 6.862,-4.052 3.786,-6.957 8.471,-8.903 5.02,-2.085 4.58,-2.887 6.294,-7.839 2.985,-8.622 -5.099,-12.435 9.118,-18.447 3.661,-1.475 11.342,-3.386 9.209,-8.961 -0.495,-1.297 -1.546,-2.319 -2.564,-3.214 -3.263,-2.716 -3.541,-2.749 -6.01,-6.25 -2.22,-3.149 -4.561,-0.598 -9.47,-3.423 -1.921,-1.105 -3.597,-2.341 -5.289,-3.754 -5.725,-4.999 -5.963,-2.862 -10.36,2.513 C 97.622,5.089 95.309,6.64 90.94,6.894 85.69,6.851 83.604,5.716 78.369,7.463 74.85,8.636 70.185,5.752 67.313,3.805 62.294,0.396 61.076,-6.381 55.182,-5.121 46.553,-1.665 52.166,7.703 38.366,1.793 32.393,-0.766 27.074,-2.91 22.945,3.532 21.288,6.121 18.626,11.775 15.373,11.546 9.362,11.123 2.994,6.27 0.448,0.936 Z"
             style="fill:#576603;fill-opacity:1;fill-rule:evenodd;stroke:none"
             id="path8683" />
        </g>
        <g
           id="g8685"
           transform="translate(603.2012,129.3604)">
          <path
             d="m 0,0 c -11.929,-3.558 -22.378,-3.698 -34.08,1.263 -5.567,2.361 -4.447,8.745 -1.873,13.249 10.603,18.949 10.693,30.753 5.974,52.775 -0.961,4.486 -2.15,8.81 -3.378,13.202 -2.767,11.819 -1.92,22.33 -4.451,35.032 -2.824,14.185 -5.2,22.314 0.225,36.48 4.382,11.441 5.294,-21.442 5.393,-22.31 1.241,-10.906 4.535,-20.567 5.823,-31.362 0.651,-6.789 2.476,-25.933 7.927,-8.05 7.39,26.477 -4.632,56.643 6.269,81.361 4.003,9.071 0.98,-15.292 0.862,-16.36 -2.295,-21.123 0.958,-24.351 2.183,-43.062 0.207,-3.193 0.178,-5.762 0.059,-8.948 -1.284,-22.302 1.377,-24.852 8.808,-2.824 3.116,9.24 0.804,23.412 4.638,28.149 2.415,2.983 6.696,3.591 6.549,-2.87 -0.1,-4.337 -1.166,-8.988 -1.309,-14.244 C 9.242,97.62 8.497,97.5 3.582,85.177 L 2.466,82.363 C -1.062,73.384 -7.42,60.895 -7.841,51.592 -8.216,43.34 -5.864,30.625 -4.745,22.081 -3.737,13.663 -2.25,8.031 0,0"
             style="fill:#576603;fill-opacity:1;fill-rule:evenodd;stroke:none"
             id="path8687" />
        </g>
        <g
           id="g8689"
           transform="translate(284.4785,133.5615)">
          <path
             d="m 0,0 c 17.997,14.444 -1.965,4.136 3.428,17.267 3.287,8.007 -10.432,0.448 -17.113,12.847 -0.034,0.063 -13.151,0.33 -17.357,-2.502 -7.011,-4.722 -14.864,9.158 -15.639,9.158 -2.924,0 -15.629,-0.093 -15.629,-5.656 -0.069,-0.012 -14.739,3.171 -16.812,5.686 -7.973,9.665 -10.863,-0.766 -15.757,-0.715 -5.367,0.055 -22.946,10.799 -23.298,-2.63 -0.076,-2.906 -4.129,0.427 -4.129,-8.885 0,-3.828 -8.358,-1.37 -7.713,-13.141 0.201,-3.679 -12.418,-9.428 1.973,-11.69 28.632,-4.499 58.691,-0.198 86.562,-2.022 5.273,-0.347 34.429,-4.137 38.686,0.028 C -1.65,-1.133 -0.734,-0.59 0,0"
             style="fill:#576603;fill-opacity:1;fill-rule:evenodd;stroke:none"
             id="path8691" />
        </g>
        <g
           id="g8693"
           transform="translate(576.7705,244.4727)">
          <path
             d="m 0,0 c -6.846,5.354 -9.773,2.992 -15.463,-2.134 -4.163,-3.75 -6.461,-2.63 -8.645,2.361 l -0.468,1.074 c -2.42,6.836 1.405,9.684 -4.547,16.779 -4.249,5.064 -4.091,5.025 -0.378,10.046 6.616,9.586 -6.571,11.967 -6.5,15.961 0.032,1.789 6.154,5.258 7.862,6.563 3.922,2.996 4.591,2.72 4.769,8.092 0.167,5.118 2.311,4.924 6.657,6.727 0.794,0.331 1.036,0.449 1.581,1.1 1.595,2.674 -6.43,3.672 -0.892,7.709 2.958,2.156 7.317,2.223 10.734,1.344 7.353,-2.172 8.129,-6.626 17.519,-4.14 1.334,0.354 2.551,0.795 3.841,1.279 2.026,0.759 11.564,2.795 12.025,3.176 1.752,1.45 -1.798,3.089 7.022,1.92 3.086,-0.409 8.016,-0.443 7.664,-4.691 -0.33,-3.987 -0.929,-3.794 2.859,-6.567 2.103,-1.54 3.843,-2.981 5.744,-4.776 4.683,-4.55 11.874,-6.21 15.297,-10.32 3.968,-5.646 -0.598,-6.22 0.12,-12.467 C 67.68,31.412 71.837,24.25 60.659,22.289 56.423,21.546 53.092,20.7 57.165,16.058 58.512,14.52 60.289,12.973 61.792,11.555 65.002,8.514 65.375,6.132 61.636,3.217 60.904,2.647 60.357,2.378 59.542,1.962 55.803,0.264 57.823,-1.107 53.739,-3.323 51.047,-4.784 47.224,-6.347 44.166,-6.279 38.621,-6.158 31.982,-3.148 27.053,-0.675 11.903,6.918 11.069,-3.688 5.69,-3.624 3.926,-3.604 1.454,-1.152 0,0"
             style="fill:#576603;fill-opacity:1;fill-rule:evenodd;stroke:none"
             id="path8695" />
        </g>
        <path
           d="m -0.121,0.5 h 658.5 v 141.621 h -658.5 z"
           style="fill:#748705;fill-opacity:1;fill-rule:evenodd;stroke:none"
           id="path8697" />
        <g
           id="g8699"
           transform="translate(183.8149,0.5)">
          <path
             d="m 0,0 h -183.936 v 87.453 c 21.712,-2.228 39.509,-14.848 43.295,-1.203 8.485,30.574 52.088,11.787 52.088,-7.055 0,-61.161 49.777,6.957 72.449,-27.472 C -20.953,45.58 -29.172,42.469 -17.326,22.554 -7.549,6.118 -7.884,20.747 0,0 M 240.755,0 H 128.826 c 3.675,28.937 24.46,2.504 27.556,46.943 0.214,3.071 45.439,16.687 33.225,-8.751 C 183.364,25.19 222.555,23.39 240.755,0 M 474.564,109.88 V 0 H 352.753 c 6.015,57.142 41.926,-2.434 41.926,71.419 0,11.261 29.599,4.222 36.058,31.194 4.428,18.493 14.816,5.195 43.827,7.267"
             style="fill:#4c5900;fill-opacity:1;fill-rule:evenodd;stroke:none"
             id="path8701" />
        </g>
      </g>
    </g>
  </g>
</svg>
